<svg width="1024" height="522" viewBox="0 0 1024 522" fill="none" xmlns="http://www.w3.org/2000/svg">
<rect width="1024" height="522" fill="#ED7979"/>
<path d="M605 199.256L605.015 192.756C602.46 192.75 600.139 194.242 599.082 196.568C598.025 198.894 598.429 201.623 600.115 203.544L605 199.256ZM756.607 372L751.721 376.288C752.952 377.69 754.726 378.496 756.592 378.5C758.458 378.504 760.235 377.706 761.473 376.31L756.607 372ZM605.376 198.901L601.552 193.646C599.278 195.3 598.326 198.23 599.193 200.905C600.06 203.581 602.549 205.395 605.361 205.401L605.376 198.901ZM672.582 150L672.597 143.5C671.217 143.497 669.873 143.933 668.758 144.744L672.582 150ZM757.001 199.246L756.986 205.746L756.986 205.746L757.001 199.246ZM909 199.946L913.866 204.256C915.56 202.343 915.976 199.616 914.93 197.285C913.884 194.954 911.57 193.452 909.015 193.446L909 199.946ZM908.626 199.59L908.611 206.09C911.423 206.096 913.921 204.293 914.8 201.622C915.679 198.95 914.74 196.016 912.474 194.351L908.626 199.59ZM841.644 150.384L845.492 145.145C844.38 144.329 843.038 143.887 841.658 143.884L841.644 150.384ZM600.115 203.544L751.721 376.288L761.492 367.712L609.885 194.968L600.115 203.544ZM763.107 372.015L763.5 199.616L750.5 199.586L750.107 371.985L763.107 372.015ZM757.015 193.101L605.015 192.756L604.985 205.756L756.985 206.101L757.015 193.101ZM609.201 204.157L676.406 155.256L668.758 144.744L601.552 193.646L609.201 204.157ZM672.567 156.5L757.098 156.692L757.127 143.692L672.597 143.5L672.567 156.5ZM750.613 150.177L750.501 199.231L763.501 199.26L763.613 150.207L750.613 150.177ZM757.016 192.746L605.391 192.401L605.361 205.401L756.986 205.746L757.016 192.746ZM753.351 145.353L675.553 192.808L682.323 203.907L760.121 156.451L753.351 145.353ZM673.008 202.09L750.305 373.954L762.161 368.622L684.864 196.758L673.008 202.09ZM904.134 195.636L751.741 367.69L761.473 376.31L913.866 204.256L904.134 195.636ZM756.985 206.101L908.985 206.446L909.015 193.446L757.015 193.101L756.985 206.101ZM912.474 194.351L845.492 145.145L837.795 155.622L904.777 204.828L912.474 194.351ZM841.658 143.884L757.127 143.692L757.098 156.692L841.629 156.884L841.658 143.884ZM756.986 205.746L908.611 206.09L908.64 193.09L757.016 192.746L756.986 205.746ZM754.076 156.437L831.657 204.245L838.477 193.178L760.896 145.37L754.076 156.437ZM829.148 197.085L751.068 368.597L762.9 373.983L840.98 202.471L829.148 197.085Z" fill="white"/>
</svg>
