<svg width="117" height="20" viewBox="0 0 117 20" fill="none" xmlns="http://www.w3.org/2000/svg">
<path d="M1 5.45452L1.00165 4.73141C0.717578 4.73076 0.459446 4.8965 0.341806 5.15506C0.224166 5.41362 0.268812 5.71711 0.45593 5.93085L1 5.45452ZM12.3651 18.436L11.821 18.9123C11.9579 19.0687 12.1556 19.1587 12.3634 19.1591C12.5713 19.1596 12.7693 19.0706 12.907 18.9148L12.3651 18.436ZM1.0282 5.42787L0.602057 4.84366C0.34941 5.02795 0.243852 5.35376 0.340429 5.65119C0.437007 5.94863 0.713834 6.15028 1.02655 6.15099L1.0282 5.42787ZM6.06622 1.75299L6.06787 1.02988C5.91413 1.02953 5.76429 1.07818 5.64008 1.16878L6.06622 1.75299ZM12.3946 5.45374L12.393 6.17685L12.3946 5.45374ZM23.7891 5.50637L24.331 5.98516C24.5191 5.77228 24.5651 5.469 24.4487 5.2099C24.3322 4.95081 24.0748 4.7839 23.7908 4.78325L23.7891 5.50637ZM23.761 5.47959L23.7594 6.2027C24.0721 6.20342 24.3499 6.00303 24.4478 5.70604C24.5457 5.40905 24.4416 5.08276 24.1898 4.89733L23.761 5.47959ZM18.7398 1.78182L19.1686 1.19956C19.0448 1.10839 18.8952 1.05906 18.7414 1.05871L18.7398 1.78182ZM0.45593 5.93085L11.821 18.9123L12.9091 17.9597L1.54407 4.9782L0.45593 5.93085ZM13.0882 18.4377L13.1177 5.48209L11.6714 5.4788L11.642 18.4344L13.0882 18.4377ZM12.3962 4.75733L1.00165 4.73141L0.998355 6.17764L12.3929 6.20356L12.3962 4.75733ZM1.45434 6.01208L6.49236 2.3372L5.64008 1.16878L0.602057 4.84366L1.45434 6.01208ZM6.06458 2.4761L12.4014 2.49052L12.4046 1.04429L6.06787 1.02988L6.06458 2.4761ZM11.6799 1.76576L11.6715 5.45209L13.1177 5.45538L13.1261 1.76905L11.6799 1.76576ZM12.3963 4.73062L1.02984 4.70476L1.02655 6.15099L12.393 6.17685L12.3963 4.73062ZM11.9975 1.20386L6.16548 4.77008L6.91996 6.00392L12.752 2.43769L11.9975 1.20386ZM5.88278 5.76313L11.6773 18.6785L12.9968 18.0865L7.2023 5.17113L5.88278 5.76313ZM23.2472 5.02757L11.8232 17.9572L12.907 18.9148L24.331 5.98516L23.2472 5.02757ZM12.3929 6.20356L23.7875 6.22948L23.7908 4.78325L12.3962 4.75733L12.3929 6.20356ZM24.1898 4.89733L19.1686 1.19956L18.311 2.36409L23.3322 6.06186L24.1898 4.89733ZM18.7414 1.05871L12.4046 1.04429L12.4014 2.49052L18.7381 2.50493L18.7414 1.05871ZM12.393 6.17685L23.7594 6.2027L23.7627 4.75648L12.3963 4.73062L12.393 6.17685ZM12.051 2.43609L17.8667 6.02881L18.6268 4.79842L12.8111 1.2057L12.051 2.43609ZM17.5882 5.19475L11.7349 18.0836L13.0517 18.6816L18.905 5.79276L17.5882 5.19475Z" fill="#F1F1F1"/>
<path d="M29.3118 14V2.78348H33.1559C34.4244 2.78348 35.39 3.0377 36.0525 3.54614C36.715 4.05459 37.0462 4.81211 37.0462 5.81872C37.0462 6.3323 36.9076 6.79452 36.6302 7.20538C36.3529 7.61624 35.9472 7.93466 35.4131 8.16063C36.0191 8.32498 36.4864 8.63569 36.8151 9.09277C37.149 9.54472 37.3159 10.0891 37.3159 10.7259C37.3159 11.7788 36.9769 12.5877 36.299 13.1526C35.6262 13.7175 34.6607 14 33.4024 14H29.3118ZM31.2608 8.9387V12.4439H33.4255C34.0367 12.4439 34.5143 12.2924 34.8584 11.9893C35.2025 11.6863 35.3745 11.2652 35.3745 10.7259C35.3745 9.56013 34.7788 8.96438 33.5873 8.9387H31.2608ZM31.2608 7.50582H33.1713C33.7773 7.50582 34.2498 7.36972 34.5888 7.09753C34.9329 6.8202 35.1049 6.42988 35.1049 5.92657C35.1049 5.37191 34.9457 4.97132 34.6273 4.7248C34.314 4.47829 33.8235 4.35503 33.1559 4.35503H31.2608V7.50582ZM44.1336 13.1834C43.5841 13.8305 42.8034 14.1541 41.7917 14.1541C40.8878 14.1541 40.2022 13.8896 39.7348 13.3606C39.2726 12.8316 39.0415 12.0664 39.0415 11.0649V5.66465H40.9135V11.0418C40.9135 12.0998 41.3526 12.6288 42.2308 12.6288C43.1398 12.6288 43.7536 12.3026 44.072 11.6504V5.66465H45.944V14H44.1798L44.1336 13.1834ZM49.842 14H47.97V5.66465H49.842V14ZM47.8545 3.49992C47.8545 3.21232 47.9443 2.97351 48.1241 2.78348C48.309 2.59346 48.5709 2.49845 48.9099 2.49845C49.2488 2.49845 49.5107 2.59346 49.6956 2.78348C49.8805 2.97351 49.973 3.21232 49.973 3.49992C49.973 3.78239 49.8805 4.01864 49.6956 4.20866C49.5107 4.39355 49.2488 4.48599 48.9099 4.48599C48.5709 4.48599 48.309 4.39355 48.1241 4.20866C47.9443 4.01864 47.8545 3.78239 47.8545 3.49992ZM53.8787 14H52.0067V2.16719H53.8787V14ZM58.2698 3.63859V5.66465H59.7412V7.05131H58.2698V11.7043C58.2698 12.0227 58.3314 12.2538 58.4547 12.3976C58.5831 12.5363 58.8091 12.6056 59.1326 12.6056C59.3483 12.6056 59.5666 12.58 59.7874 12.5286V13.9769C59.3611 14.095 58.9503 14.1541 58.5548 14.1541C57.1168 14.1541 56.3978 13.3606 56.3978 11.7736V7.05131H55.0266V5.66465H56.3978V3.63859H58.2698ZM67.0982 14H65.2262V5.66465H67.0982V14ZM65.1106 3.49992C65.1106 3.21232 65.2005 2.97351 65.3803 2.78348C65.5652 2.59346 65.8271 2.49845 66.166 2.49845C66.505 2.49845 66.7669 2.59346 66.9518 2.78348C67.1367 2.97351 67.2291 3.21232 67.2291 3.49992C67.2291 3.78239 67.1367 4.01864 66.9518 4.20866C66.7669 4.39355 66.505 4.48599 66.166 4.48599C65.8271 4.48599 65.5652 4.39355 65.3803 4.20866C65.2005 4.01864 65.1106 3.78239 65.1106 3.49992ZM70.8807 5.66465L70.9346 6.62761C71.5509 5.88292 72.3598 5.51058 73.3613 5.51058C75.0971 5.51058 75.9805 6.50435 76.0113 8.49189V14H74.1393V8.59974C74.1393 8.07076 74.0238 7.68044 73.7927 7.42879C73.5667 7.172 73.1943 7.0436 72.6756 7.0436C71.9207 7.0436 71.3583 7.38513 70.9885 8.06819V14H69.1165V5.66465H70.8807ZM86.157 9.67825H83.9846V14H82.0356V2.78348H85.9798C87.274 2.78348 88.273 3.07365 88.9766 3.654C89.6802 4.23434 90.032 5.07404 90.032 6.17309C90.032 6.92291 89.8496 7.55204 89.485 8.06048C89.1255 8.56379 88.6222 8.95154 87.9751 9.22374L90.4942 13.8999V14H88.4065L86.157 9.67825ZM83.9846 8.11441H85.9875C86.6449 8.11441 87.1585 7.95007 87.5283 7.62138C87.898 7.28755 88.0829 6.83304 88.0829 6.25783C88.0829 5.65695 87.9109 5.19216 87.5668 4.86347C87.2278 4.53478 86.7194 4.3653 86.0415 4.35503H83.9846V8.11441ZM96.7495 13.1834C96.2 13.8305 95.4194 14.1541 94.4076 14.1541C93.5037 14.1541 92.8181 13.8896 92.3508 13.3606C91.8885 12.8316 91.6574 12.0664 91.6574 11.0649V5.66465H93.5294V11.0418C93.5294 12.0998 93.9685 12.6288 94.8467 12.6288C95.7558 12.6288 96.3695 12.3026 96.6879 11.6504V5.66465H98.5599V14H96.7958L96.7495 13.1834ZM107.781 9.91706C107.781 11.2113 107.491 12.241 106.911 13.0062C106.335 13.7715 105.542 14.1541 104.53 14.1541C103.554 14.1541 102.794 13.8023 102.25 13.0987L102.158 14H100.463V2.16719H102.335V6.46583C102.874 5.82899 103.601 5.51058 104.515 5.51058C105.532 5.51058 106.33 5.88805 106.911 6.64301C107.491 7.39797 107.781 8.45337 107.781 9.80921V9.91706ZM105.909 9.75529C105.909 8.85139 105.75 8.17347 105.432 7.72152C105.113 7.26958 104.651 7.0436 104.045 7.0436C103.233 7.0436 102.663 7.39797 102.335 8.10671V11.5425C102.669 12.2667 103.244 12.6288 104.06 12.6288C104.646 12.6288 105.098 12.4105 105.416 11.9739C105.735 11.5374 105.899 10.8775 105.909 9.9941V9.75529ZM112.18 11.3191L113.875 5.66465H115.87L112.557 15.2634C112.049 16.6655 111.186 17.3665 109.969 17.3665C109.697 17.3665 109.396 17.3203 109.068 17.2278V15.7795L109.422 15.8027C109.895 15.8027 110.249 15.7153 110.485 15.5407C110.727 15.3712 110.917 15.0836 111.055 14.6779L111.325 13.9615L108.397 5.66465H110.416L112.18 11.3191Z" fill="#FCFCFC"/>
</svg>
