<svg width="318" height="236" viewBox="0 0 318 236" fill="none" xmlns="http://www.w3.org/2000/svg">
<path d="M7 56.2561L7.01475 49.7561C4.45988 49.7503 2.13855 51.2417 1.08193 53.5678C0.0253088 55.894 0.429378 58.6234 2.11464 60.5436L7 56.2561ZM158.607 229L153.721 233.288C154.952 234.69 156.726 235.496 158.592 235.5C160.458 235.504 162.235 234.706 163.473 233.31L158.607 229ZM7.37614 55.9014L3.55177 50.6456C1.27768 52.3003 0.325715 55.2298 1.19271 57.9053C2.05971 60.5807 4.549 62.395 7.36139 62.4014L7.37614 55.9014ZM74.5819 7L74.5967 0.500017C73.2174 0.496886 71.8729 0.932597 70.7576 1.74413L74.5819 7ZM159.001 56.2456L158.986 62.7456L158.986 62.7456L159.001 56.2456ZM311 56.946L315.866 61.2557C317.56 59.3432 317.976 56.6156 316.93 54.2847C315.884 51.9538 313.57 50.4518 311.015 50.446L311 56.946ZM310.626 56.5896L310.611 63.0896C313.423 63.096 315.921 61.293 316.8 58.6215C317.679 55.9501 316.74 53.0163 314.474 51.3512L310.626 56.5896ZM243.644 7.38364L247.492 2.14521C246.38 1.32861 245.038 0.886784 243.658 0.883655L243.644 7.38364ZM2.11464 60.5436L153.721 233.288L163.492 224.712L11.8854 51.9685L2.11464 60.5436ZM165.107 229.015L165.5 56.6159L152.5 56.5862L152.107 228.985L165.107 229.015ZM159.015 50.1011L7.01475 49.7561L6.98525 62.756L158.985 63.101L159.015 50.1011ZM11.2005 61.1573L78.4063 12.2559L70.7576 1.74413L3.55177 50.6456L11.2005 61.1573ZM74.5672 13.5L159.098 13.6918L159.127 0.691876L74.5967 0.500017L74.5672 13.5ZM152.613 7.17703L152.501 56.2308L165.501 56.2604L165.613 7.20669L152.613 7.17703ZM159.016 49.7456L7.39089 49.4015L7.36139 62.4014L158.986 62.7456L159.016 49.7456ZM155.351 2.35289L77.5533 49.8084L84.3231 60.9066L162.121 13.4511L155.351 2.35289ZM75.0078 59.09L152.305 230.954L164.161 225.622L86.8639 53.7577L75.0078 59.09ZM306.134 52.6362L153.741 224.69L163.473 233.31L315.866 61.2557L306.134 52.6362ZM158.985 63.101L310.985 63.446L311.015 50.446L159.015 50.1011L158.985 63.101ZM314.474 51.3512L247.492 2.14521L239.795 12.6221L306.777 61.8281L314.474 51.3512ZM243.658 0.883655L159.127 0.691876L159.098 13.6918L243.629 13.8836L243.658 0.883655ZM158.986 62.7456L310.611 63.0896L310.64 50.0897L159.016 49.7456L158.986 62.7456ZM156.076 13.4372L233.657 61.2454L240.477 50.1781L162.896 2.36989L156.076 13.4372ZM231.148 54.085L153.068 225.597L164.9 230.983L242.98 59.4713L231.148 54.085Z" fill="white"/>
</svg>
